<?xml version="1.0" encoding="UTF-8" standalone="no"?>
<svg
   xmlns:svg="http://www.w3.org/2000/svg"
   xmlns="http://www.w3.org/2000/svg"
   version="1.1"
   width="531.03125"
   height="328.56772"
   id="svg3121">
  <defs
     id="defs3123" />
  <g
     transform="translate(-163.0558,-288.07832)"
     id="layer1">
    <path
       d="m 428.78321,289.07832 c -145.99399,0 -264.72741,73.14101 -264.72741,163.49565 0,89.65999 118.73342,163.07208 264.72741,163.07208 146.80723,0 264.30384,-73.41209 264.30384,-163.07208 0,-90.35464 -117.49661,-163.49565 -264.30384,-163.49565 z m 0,31.34373 c 136.5231,0 246.93772,58.67206 246.93772,132.15192 0,72.80215 -110.41462,131.72835 -246.93772,131.72835 -135.60821,0 -246.0906,-58.9262 -246.0906,-131.72835 0,-73.47986 110.48239,-132.15192 246.0906,-132.15192 z m -189.33304,71.15872 0,121.56283 31.34372,0 0,-51.25123 52.94548,0 0,21.60176 -46.16846,0 0,29.64947 59.29894,0 17.78968,-12.28335 0,-40.66213 -8.04771,-7.62415 8.04771,-7.20059 0,-34.73223 -16.09542,-19.06038 -99.11394,0 z m 127.91628,0 0,59.72251 13.13048,12.70691 29.2259,-0.42289 0,-28.80234 -5.50633,-5.08276 0,-38.12075 -36.85005,0 z m 89.79553,0 0,38.12075 -5.50633,5.08277 -35.15579,0 0,78.35931 36.42649,0 0,-49.55697 27.53165,0.42288 13.13048,-12.28335 0,-60.14607 -36.4265,0 z m 49.13341,0 0,121.56283 33.03798,0 0,-91.06623 36.00293,0 9.74197,11.01266 0,49.98053 -38.96788,0 0,30.07304 71.58229,0 0,-99.96107 -18.21324,-21.60176 -93.18405,0 z m -235.5015,29.64947 52.52192,0 0,21.60176 -52.52192,0 0,-21.60176 z"
       id="path84"
       style="fill:#d9261c;fill-opacity:1;fill-rule:evenodd;stroke:none" />
  </g>
</svg>
